<svg width="64" height="64" viewBox="0 0 64 64" fill="none" xmlns="http://www.w3.org/2000/svg">
<rect width="64" height="64" rx="10" fill="white"/>
<path d="M5.8457 19.5361H11.5024L19.0562 37.9761H19.3467L26.9175 19.5361H32.6426V45H28.1138V27.5H27.9087L20.8335 44.9146H17.5181L10.5283 27.4658H10.2891V45H5.8457V19.5361ZM41.6489 45.3931C40.4299 45.3931 39.3361 45.1766 38.3677 44.7437C37.3993 44.2993 36.6359 43.6499 36.0776 42.7954C35.5194 41.9409 35.2402 40.887 35.2402 39.6338C35.2402 38.5628 35.4396 37.6742 35.8384 36.9678C36.2371 36.2614 36.7783 35.6974 37.4619 35.2759C38.1569 34.8543 38.9373 34.5353 39.8032 34.3188C40.6691 34.091 41.5635 33.9315 42.4863 33.8403C43.6143 33.715 44.5257 33.6068 45.2207 33.5156C45.9157 33.4245 46.417 33.2764 46.7246 33.0713C47.0436 32.8662 47.2031 32.5472 47.2031 32.1143V32.0288C47.2031 31.106 46.9297 30.3882 46.3828 29.8755C45.8359 29.3628 45.0384 29.1064 43.9902 29.1064C42.8851 29.1064 42.0078 29.3457 41.3584 29.8242C40.7204 30.3027 40.2874 30.8667 40.0596 31.5161L35.8726 30.918C36.203 29.7559 36.7498 28.7874 37.5132 28.0127C38.2765 27.2266 39.2051 26.6398 40.2988 26.2524C41.404 25.8537 42.623 25.6543 43.9561 25.6543C44.8675 25.6543 45.779 25.7625 46.6904 25.979C47.6019 26.1841 48.4393 26.5373 49.2026 27.0386C49.966 27.5399 50.5755 28.2121 51.0312 29.0552C51.487 29.8983 51.7148 30.9521 51.7148 32.2168V45H47.3911V42.3682H47.2544C46.981 42.8923 46.5936 43.3879 46.0923 43.855C45.6024 44.3107 44.9871 44.681 44.2466 44.9658C43.5174 45.2507 42.6515 45.3931 41.6489 45.3931ZM42.7939 42.0776C43.7054 42.0776 44.4915 41.901 45.1523 41.5479C45.8132 41.1833 46.3258 40.7048 46.6904 40.1123C47.055 39.5085 47.2373 38.8534 47.2373 38.147V35.9082C47.0892 36.0221 46.8499 36.1304 46.5195 36.2329C46.1891 36.3241 45.8132 36.4095 45.3916 36.4893C44.9701 36.569 44.5542 36.6374 44.144 36.6943C43.7453 36.7513 43.3978 36.7969 43.1016 36.8311C42.4294 36.9222 41.8255 37.076 41.29 37.2925C40.766 37.4976 40.3501 37.7824 40.0425 38.147C39.7349 38.5116 39.5811 38.9844 39.5811 39.5654C39.5811 40.3971 39.883 41.0238 40.4868 41.4453C41.0907 41.8669 41.8597 42.0776 42.7939 42.0776ZM58.3286 45.2905C57.5539 45.2905 56.8988 45.0285 56.3633 44.5044C55.8392 43.9689 55.5771 43.3195 55.5771 42.5562C55.5771 41.7928 55.8392 41.1491 56.3633 40.625C56.8988 40.0895 57.5539 39.8218 58.3286 39.8218C59.1034 39.8218 59.7528 40.0895 60.2769 40.625C60.8123 41.1491 61.0801 41.7928 61.0801 42.5562C61.0801 43.3195 60.8123 43.9689 60.2769 44.5044C59.7528 45.0285 59.1034 45.2905 58.3286 45.2905Z" fill="#F26207"/>
</svg>
